<svg id="Layer_1" data-name="Layer 1" xmlns="http://www.w3.org/2000/svg" xmlns:xlink="http://www.w3.org/1999/xlink" viewBox="0 0 64.12 64.19"><defs><style>.cls-1,.cls-4,.cls-5{stroke:#231f20;stroke-linejoin:round;}.cls-1{fill:url(#linear-gradient);}.cls-2{fill:#ed1c24;}.cls-2,.cls-3{stroke:#fff;}.cls-2,.cls-3,.cls-6{stroke-miterlimit:10;stroke-width:0.75px;}.cls-3{fill:#2e3192;}.cls-4{fill:url(#linear-gradient-2);}.cls-5{fill:url(#linear-gradient-3);}.cls-6{fill:#c02550;stroke:#a97c50;stroke-linecap:round;}</style><linearGradient id="linear-gradient" x1="14.48" y1="27.31" x2="42.34" y2="59.61" gradientUnits="userSpaceOnUse"><stop offset="0" stop-color="#eebc8a"/><stop offset="1" stop-color="#a97c50"/></linearGradient><linearGradient id="linear-gradient-2" x1="13.63" y1="-9.77" x2="42.75" y2="14.81" gradientUnits="userSpaceOnUse"><stop offset="0" stop-color="#f5e0c6"/><stop offset="1" stop-color="#c49a6c"/></linearGradient><linearGradient id="linear-gradient-3" x1="50.36" y1="27.65" x2="62.83" y2="40.33" gradientUnits="userSpaceOnUse"><stop offset="0" stop-color="#a97c50"/><stop offset="1" stop-color="#8b5e3c"/></linearGradient></defs><rect class="cls-1" x="0.5" y="11.08" width="45.34" height="52.61"/><path class="cls-2" d="M10.6,21.91H32.2V28H19.37v5h11v5.74h-11V50.33H10.6Z" transform="translate(0.18 0.26)"/><path class="cls-3" d="M31,48.18l5.29.61a7.5,7.5,0,0,1-1.43,2.88,6.76,6.76,0,0,1-2.55,1.89,10,10,0,0,1-4,.68,14.36,14.36,0,0,1-3.85-.44,6.56,6.56,0,0,1-2.65-1.4,7,7,0,0,1-1.74-2.27,8.06,8.06,0,0,1-.63-3.47,8.21,8.21,0,0,1,.77-3.75,6.72,6.72,0,0,1,1.53-2,7.2,7.2,0,0,1,2-1.3A11.16,11.16,0,0,1,28,39a9.64,9.64,0,0,1,5.43,1.28A6.75,6.75,0,0,1,36,44l-5.24.71a2.45,2.45,0,0,0-.9-1.41,2.88,2.88,0,0,0-1.75-.48,2.78,2.78,0,0,0-2.23,1,4.52,4.52,0,0,0-.86,3,4,4,0,0,0,.85,2.74,2.81,2.81,0,0,0,2.16.93,3,3,0,0,0,1.84-.56A3.41,3.41,0,0,0,31,48.18Z" transform="translate(0.18 0.26)"/><polygon class="cls-4" points="0.5 11.08 23.96 0.5 63.62 0.5 45.84 11.08 0.5 11.08"/><polygon class="cls-5" points="63.62 0.5 63.62 51.68 45.84 63.69 45.84 11.08 63.62 0.5"/><line class="cls-6" x1="16.05" y1="4.79" x2="54.73" y2="4.79"/></svg>